<svg xmlns="http://www.w3.org/2000/svg" xmlns:xlink="http://www.w3.org/1999/xlink" width="363" zoomAndPan="magnify" viewBox="0 0 272.25 68.999997" height="92" preserveAspectRatio="xMidYMid meet" version="1.2"><defs><clipPath id="cb85d65894"><path d="M 13 32 L 64.324219 32 L 64.324219 41 L 13 41 Z M 13 32 "/></clipPath><clipPath id="d1a8252b51"><path d="M 22 13 L 64.324219 13 L 64.324219 22 L 22 22 Z M 22 13 "/></clipPath><clipPath id="d4f26fbe5b"><path d="M 44 23 L 64.324219 23 L 64.324219 31 L 44 31 Z M 44 23 "/></clipPath><clipPath id="7eb5c0044d"><path d="M 24 42 L 64.324219 42 L 64.324219 51 L 24 51 Z M 24 42 "/></clipPath><clipPath id="ba861e9740"><path d="M 28 52 L 64.324219 52 L 64.324219 61 L 28 61 Z M 28 52 "/></clipPath><filter x="0%" y="0%" width="100%" filterUnits="objectBoundingBox" id="0efbd05f54" height="100%"><feColorMatrix values="0 0 0 0 1 0 0 0 0 1 0 0 0 0 1 0 0 0 1 0" type="matrix" in="SourceGraphic"/></filter><clipPath id="409cf65cf3"><rect x="0" width="185" y="0" height="35"/></clipPath><clipPath id="0947045666"><rect x="0" width="182" y="0" height="21"/></clipPath></defs><g id="c0e7a24247"><g clip-rule="nonzero" clip-path="url(#cb85d65894)"><path style=" stroke:none;fill-rule:nonzero;fill:#ff3131;fill-opacity:1;" d="M 86.304688 32.777344 L 45.011719 32.777344 L 43.246094 35.824219 L 39.164062 35.824219 L 37.402344 32.777344 C 35.878906 32.777344 16.828125 32.777344 15.308594 32.777344 L 13.027344 36.726562 L 15.308594 40.675781 C 16.828125 40.675781 35.878906 40.675781 37.402344 40.675781 L 39.164062 37.628906 L 43.246094 37.628906 L 45.011719 40.675781 L 86.304688 40.675781 C 86.761719 38.066406 86.761719 35.394531 86.304688 32.777344 Z M 86.304688 32.777344 "/></g><g clip-rule="nonzero" clip-path="url(#d1a8252b51)"><path style=" stroke:none;fill-rule:nonzero;fill:#ff3131;fill-opacity:1;" d="M 29.609375 21.253906 L 31.375 18.207031 L 35.457031 18.207031 L 37.21875 21.253906 L 80.757812 21.253906 C 72.574219 12.03125 63.398438 13.347656 52.332031 13.347656 L 37.21875 13.347656 L 35.457031 16.394531 L 31.375 16.394531 L 29.609375 13.347656 L 25.046875 13.347656 L 22.769531 17.296875 L 25.046875 21.246094 L 29.609375 21.246094 Z M 29.609375 21.253906 "/></g><g clip-rule="nonzero" clip-path="url(#d4f26fbe5b)"><path style=" stroke:none;fill-rule:nonzero;fill:#ff3131;fill-opacity:1;" d="M 56.882812 26.113281 L 52.800781 26.113281 L 51.039062 23.066406 L 46.476562 23.066406 L 44.195312 27.015625 L 46.476562 30.964844 L 51.039062 30.964844 L 52.800781 27.917969 L 56.882812 27.917969 L 58.648438 30.964844 L 85.921875 30.964844 C 85.183594 28.082031 83.90625 25.410156 82.207031 23.058594 L 58.648438 23.058594 Z M 56.882812 26.113281 "/></g><path style=" stroke:none;fill-rule:nonzero;fill:#ff3131;fill-opacity:1;" d="M 2.28125 32.777344 L 0 36.726562 L 2.28125 40.683594 L 6.851562 40.683594 L 9.132812 36.726562 L 6.851562 32.777344 Z M 2.28125 32.777344 "/><path style=" stroke:none;fill-rule:nonzero;fill:#ff3131;fill-opacity:1;" d="M 31.167969 27.015625 L 33.449219 30.964844 L 38.019531 30.964844 L 40.300781 27.015625 L 38.019531 23.066406 L 33.449219 23.066406 Z M 31.167969 27.015625 "/><path style=" stroke:none;fill-rule:nonzero;fill:#ff3131;fill-opacity:1;" d="M 17.871094 52.195312 L 15.582031 56.15625 L 17.871094 60.105469 L 22.429688 60.105469 L 24.710938 56.15625 L 22.429688 52.195312 Z M 17.871094 52.195312 "/><g clip-rule="nonzero" clip-path="url(#7eb5c0044d)"><path style=" stroke:none;fill-rule:nonzero;fill:#ff3131;fill-opacity:1;" d="M 37.402344 45.535156 L 33.316406 45.535156 L 31.554688 42.488281 L 26.992188 42.488281 L 24.710938 46.4375 L 26.992188 50.386719 L 31.554688 50.386719 L 33.316406 47.335938 L 37.402344 47.335938 L 39.164062 50.386719 L 82.199219 50.386719 C 83.898438 48.035156 85.175781 45.363281 85.914062 42.480469 C 71.625 42.480469 53.445312 42.480469 39.15625 42.480469 Z M 37.402344 45.535156 "/></g><g clip-rule="nonzero" clip-path="url(#ba861e9740)"><path style=" stroke:none;fill-rule:nonzero;fill:#ff3131;fill-opacity:1;" d="M 49.09375 55.253906 L 45.011719 55.253906 L 43.246094 52.203125 C 39.132812 52.203125 35.011719 52.203125 30.886719 52.203125 L 28.605469 56.15625 L 30.886719 60.105469 C 35.011719 60.105469 39.125 60.105469 43.246094 60.105469 L 45.011719 57.054688 L 49.09375 57.054688 L 50.855469 60.105469 C 62.542969 60.105469 72.363281 61.664062 80.757812 52.195312 L 50.855469 52.195312 Z M 49.09375 55.253906 "/></g><g mask="url(#a7e06294f6)" transform="matrix(1,0,0,1,80,9)"><g clip-path="url(#409cf65cf3)"><g style="fill:#000000;fill-opacity:1;"><g transform="translate(1.266551, 27.283408)"><path style="stroke:none" d="M 18.90625 -20.34375 L 18.90625 0 L 14.296875 0 L 6.953125 -10.6875 L 6.828125 -10.6875 L 6.828125 0 L 1.3125 0 L 1.3125 -20.34375 L 6 -20.34375 L 13.234375 -9.6875 L 13.390625 -9.6875 L 13.390625 -20.34375 Z M 18.90625 -20.34375 "/></g></g><g style="fill:#000000;fill-opacity:1;"><g transform="translate(27.081684, 27.283408)"><path style="stroke:none" d="M 1.3125 0 L 1.3125 -20.34375 L 15.96875 -20.34375 L 15.96875 -15.890625 L 6.828125 -15.890625 L 6.828125 -12.390625 L 15.21875 -12.390625 L 15.21875 -7.953125 L 6.828125 -7.953125 L 6.828125 -4.453125 L 15.9375 -4.453125 L 15.9375 0 Z M 1.3125 0 "/></g></g><g style="fill:#000000;fill-opacity:1;"><g transform="translate(50.076373, 27.283408)"><path style="stroke:none" d="M 6.46875 0 L 0.484375 -20.34375 L 6.640625 -20.34375 L 9.421875 -7.828125 L 9.578125 -7.828125 L 12.875 -20.34375 L 17.71875 -20.34375 L 21.015625 -7.78125 L 21.171875 -7.78125 L 23.953125 -20.34375 L 30.109375 -20.34375 L 24.109375 0 L 18.828125 0 L 15.375 -11.359375 L 15.21875 -11.359375 L 11.765625 0 Z M 6.46875 0 "/></g></g><g style="fill:#000000;fill-opacity:1;"><g transform="translate(86.262867, 27.283408)"><path style="stroke:none" d="M 2.46875 0 L 2.46875 -20.34375 L 9.578125 -20.34375 C 10.992188 -20.34375 12.160156 -20.097656 13.078125 -19.609375 C 14.003906 -19.117188 14.691406 -18.460938 15.140625 -17.640625 C 15.585938 -16.828125 15.8125 -15.925781 15.8125 -14.9375 C 15.8125 -14.0625 15.65625 -13.335938 15.34375 -12.765625 C 15.039062 -12.203125 14.640625 -11.753906 14.140625 -11.421875 C 13.640625 -11.085938 13.097656 -10.84375 12.515625 -10.6875 L 12.515625 -10.484375 C 13.140625 -10.441406 13.765625 -10.222656 14.390625 -9.828125 C 15.015625 -9.429688 15.539062 -8.863281 15.96875 -8.125 C 16.394531 -7.382812 16.609375 -6.476562 16.609375 -5.40625 C 16.609375 -4.382812 16.375 -3.46875 15.90625 -2.65625 C 15.445312 -1.84375 14.71875 -1.195312 13.71875 -0.71875 C 12.71875 -0.238281 11.414062 0 9.8125 0 Z M 4.921875 -2.1875 L 9.8125 -2.1875 C 11.414062 -2.1875 12.554688 -2.5 13.234375 -3.125 C 13.921875 -3.75 14.265625 -4.507812 14.265625 -5.40625 C 14.265625 -6.09375 14.085938 -6.726562 13.734375 -7.3125 C 13.378906 -7.894531 12.878906 -8.363281 12.234375 -8.71875 C 11.585938 -9.070312 10.820312 -9.25 9.9375 -9.25 L 4.921875 -9.25 Z M 4.921875 -11.40625 L 9.5 -11.40625 C 10.601562 -11.40625 11.539062 -11.722656 12.3125 -12.359375 C 13.082031 -13.003906 13.46875 -13.863281 13.46875 -14.9375 C 13.46875 -15.832031 13.15625 -16.59375 12.53125 -17.21875 C 11.90625 -17.84375 10.921875 -18.15625 9.578125 -18.15625 L 4.921875 -18.15625 Z M 4.921875 -11.40625 "/></g></g><g style="fill:#000000;fill-opacity:1;"><g transform="translate(110.052049, 27.283408)"><path style="stroke:none" d="M 19.625 -10.171875 C 19.625 -8.023438 19.234375 -6.171875 18.453125 -4.609375 C 17.679688 -3.046875 16.617188 -1.835938 15.265625 -0.984375 C 13.921875 -0.140625 12.378906 0.28125 10.640625 0.28125 C 8.910156 0.28125 7.367188 -0.140625 6.015625 -0.984375 C 4.671875 -1.835938 3.609375 -3.046875 2.828125 -4.609375 C 2.054688 -6.171875 1.671875 -8.023438 1.671875 -10.171875 C 1.671875 -12.316406 2.054688 -14.171875 2.828125 -15.734375 C 3.609375 -17.296875 4.671875 -18.5 6.015625 -19.34375 C 7.367188 -20.195312 8.910156 -20.625 10.640625 -20.625 C 12.378906 -20.625 13.921875 -20.195312 15.265625 -19.34375 C 16.617188 -18.5 17.679688 -17.296875 18.453125 -15.734375 C 19.234375 -14.171875 19.625 -12.316406 19.625 -10.171875 Z M 17.234375 -10.171875 C 17.234375 -11.929688 16.941406 -13.414062 16.359375 -14.625 C 15.773438 -15.84375 14.984375 -16.757812 13.984375 -17.375 C 12.992188 -18 11.878906 -18.3125 10.640625 -18.3125 C 9.410156 -18.3125 8.296875 -18 7.296875 -17.375 C 6.304688 -16.757812 5.515625 -15.84375 4.921875 -14.625 C 4.335938 -13.414062 4.046875 -11.929688 4.046875 -10.171875 C 4.046875 -8.410156 4.335938 -6.921875 4.921875 -5.703125 C 5.515625 -4.492188 6.304688 -3.578125 7.296875 -2.953125 C 8.296875 -2.335938 9.410156 -2.03125 10.640625 -2.03125 C 11.878906 -2.03125 12.992188 -2.335938 13.984375 -2.953125 C 14.984375 -3.578125 15.773438 -4.492188 16.359375 -5.703125 C 16.941406 -6.921875 17.234375 -8.410156 17.234375 -10.171875 Z M 17.234375 -10.171875 "/></g></g><g style="fill:#000000;fill-opacity:1;"><g transform="translate(136.939742, 27.283408)"><path style="stroke:none" d="M 2.46875 0 L 2.46875 -20.34375 L 4.921875 -20.34375 L 4.921875 -2.1875 L 14.375 -2.1875 L 14.375 0 Z M 2.46875 0 "/></g></g><g style="fill:#000000;fill-opacity:1;"><g transform="translate(158.265993, 27.283408)"><path style="stroke:none" d="M 8.734375 0 L 2.46875 0 L 2.46875 -20.34375 L 9.015625 -20.34375 C 10.992188 -20.34375 12.679688 -19.9375 14.078125 -19.125 C 15.484375 -18.3125 16.5625 -17.148438 17.3125 -15.640625 C 18.0625 -14.128906 18.4375 -12.316406 18.4375 -10.203125 C 18.4375 -8.085938 18.054688 -6.265625 17.296875 -4.734375 C 16.546875 -3.210938 15.445312 -2.039062 14 -1.21875 C 12.5625 -0.40625 10.804688 0 8.734375 0 Z M 4.921875 -2.1875 L 8.578125 -2.1875 C 11.097656 -2.1875 12.972656 -2.898438 14.203125 -4.328125 C 15.429688 -5.765625 16.046875 -7.722656 16.046875 -10.203125 C 16.046875 -12.671875 15.441406 -14.613281 14.234375 -16.03125 C 13.035156 -17.445312 11.242188 -18.15625 8.859375 -18.15625 L 4.921875 -18.15625 Z M 4.921875 -2.1875 "/></g></g></g><mask id="a7e06294f6"><g filter="url(#0efbd05f54)"><rect x="0" width="272.25" y="0" height="68.999997" style="fill:#000000;fill-opacity:0.8;stroke:none;"/></g></mask></g><g mask="url(#e29c87683a)" transform="matrix(1,0,0,1,80,42)"><g clip-path="url(#0947045666)"><g style="fill:#000000;fill-opacity:1;"><g transform="translate(1.144515, 15.916166)"><path style="stroke:none" d="M 1.46875 -12.09375 L 3.21875 -12.09375 L 7.328125 -2.046875 L 7.46875 -2.046875 L 11.578125 -12.09375 L 13.3125 -12.09375 L 13.3125 0 L 11.953125 0 L 11.953125 -9.1875 L 11.828125 -9.1875 L 8.046875 0 L 6.734375 0 L 2.953125 -9.1875 L 2.828125 -9.1875 L 2.828125 0 L 1.46875 0 Z M 1.46875 -12.09375 "/></g></g><g style="fill:#000000;fill-opacity:1;"><g transform="translate(19.62794, 15.916166)"><path style="stroke:none" d="M 1.953125 0 L 0.421875 0 L 4.859375 -12.09375 L 6.375 -12.09375 L 10.8125 0 L 9.28125 0 L 8.0625 -3.421875 L 3.171875 -3.421875 Z M 3.640625 -4.71875 L 7.609375 -4.71875 L 5.671875 -10.171875 L 5.578125 -10.171875 Z M 3.640625 -4.71875 "/></g></g><g style="fill:#000000;fill-opacity:1;"><g transform="translate(34.192189, 15.916166)"><path style="stroke:none" d="M 1.46875 0 L 1.46875 -12.09375 L 5.546875 -12.09375 C 6.492188 -12.09375 7.269531 -11.929688 7.875 -11.609375 C 8.476562 -11.285156 8.925781 -10.84375 9.21875 -10.28125 C 9.507812 -9.726562 9.65625 -9.097656 9.65625 -8.390625 C 9.65625 -7.578125 9.46875 -6.875 9.09375 -6.28125 C 8.726562 -5.6875 8.160156 -5.257812 7.390625 -5 L 10.125 0 L 8.4375 0 L 5.875 -4.734375 C 5.78125 -4.722656 5.679688 -4.71875 5.578125 -4.71875 L 2.921875 -4.71875 L 2.921875 0 Z M 2.921875 -6.046875 L 5.53125 -6.046875 C 6.5 -6.046875 7.1875 -6.253906 7.59375 -6.671875 C 8.007812 -7.085938 8.21875 -7.660156 8.21875 -8.390625 C 8.21875 -9.109375 8.007812 -9.6875 7.59375 -10.125 C 7.175781 -10.570312 6.476562 -10.796875 5.5 -10.796875 L 2.921875 -10.796875 Z M 2.921875 -6.046875 "/></g></g><g style="fill:#000000;fill-opacity:1;"><g transform="translate(48.142598, 15.916166)"><path style="stroke:none" d="M 1.46875 0 L 1.46875 -12.09375 L 2.921875 -12.09375 L 2.921875 -6.09375 L 3.0625 -6.09375 L 8.5 -12.09375 L 10.421875 -12.09375 L 5.34375 -6.640625 L 10.421875 0 L 8.640625 0 L 4.4375 -5.625 L 2.921875 -3.921875 L 2.921875 0 Z M 1.46875 0 "/></g></g><g style="fill:#000000;fill-opacity:1;"><g transform="translate(62.305488, 15.916166)"><path style="stroke:none" d="M 1.46875 0 L 1.46875 -12.09375 L 8.765625 -12.09375 L 8.765625 -10.796875 L 2.921875 -10.796875 L 2.921875 -6.703125 L 8.390625 -6.703125 L 8.390625 -5.40625 L 2.921875 -5.40625 L 2.921875 -1.296875 L 8.859375 -1.296875 L 8.859375 0 Z M 1.46875 0 "/></g></g><g style="fill:#000000;fill-opacity:1;"><g transform="translate(75.571214, 15.916166)"><path style="stroke:none" d="M 0.796875 -10.796875 L 0.796875 -12.09375 L 9.875 -12.09375 L 9.875 -10.796875 L 6.0625 -10.796875 L 6.0625 0 L 4.609375 0 L 4.609375 -10.796875 Z M 0.796875 -10.796875 "/></g></g><g style="fill:#000000;fill-opacity:1;"><g transform="translate(89.568835, 15.916166)"><path style="stroke:none" d="M 2.921875 -12.09375 L 2.921875 0 L 1.46875 0 L 1.46875 -12.09375 Z M 2.921875 -12.09375 "/></g></g><g style="fill:#000000;fill-opacity:1;"><g transform="translate(97.286345, 15.916166)"><path style="stroke:none" d="M 11.046875 -12.09375 L 11.046875 0 L 9.640625 0 L 3.046875 -9.5 L 2.921875 -9.5 L 2.921875 0 L 1.46875 0 L 1.46875 -12.09375 L 2.875 -12.09375 L 9.5 -2.578125 L 9.609375 -2.578125 L 9.609375 -12.09375 Z M 11.046875 -12.09375 "/></g></g><g style="fill:#000000;fill-opacity:1;"><g transform="translate(113.125511, 15.916166)"><path style="stroke:none" d="M 9.734375 -8.3125 C 9.472656 -9.101562 9.050781 -9.726562 8.46875 -10.1875 C 7.882812 -10.65625 7.15625 -10.890625 6.28125 -10.890625 C 5.5625 -10.890625 4.910156 -10.703125 4.328125 -10.328125 C 3.742188 -9.960938 3.273438 -9.414062 2.921875 -8.6875 C 2.578125 -7.96875 2.40625 -7.085938 2.40625 -6.046875 C 2.40625 -4.992188 2.578125 -4.109375 2.921875 -3.390625 C 3.273438 -2.671875 3.75 -2.125 4.34375 -1.75 C 4.945312 -1.382812 5.625 -1.203125 6.375 -1.203125 C 7.050781 -1.203125 7.648438 -1.347656 8.171875 -1.640625 C 8.703125 -1.929688 9.117188 -2.335938 9.421875 -2.859375 C 9.722656 -3.390625 9.878906 -4.019531 9.890625 -4.75 L 6.703125 -4.75 L 6.703125 -6.046875 L 11.3125 -6.046875 L 11.3125 -4.75 C 11.3125 -3.75 11.097656 -2.878906 10.671875 -2.140625 C 10.253906 -1.410156 9.671875 -0.84375 8.921875 -0.4375 C 8.179688 -0.03125 7.332031 0.171875 6.375 0.171875 C 5.300781 0.171875 4.359375 -0.078125 3.546875 -0.578125 C 2.742188 -1.085938 2.113281 -1.804688 1.65625 -2.734375 C 1.207031 -3.660156 0.984375 -4.765625 0.984375 -6.046875 C 0.984375 -7.316406 1.207031 -8.414062 1.65625 -9.34375 C 2.113281 -10.28125 2.738281 -11 3.53125 -11.5 C 4.332031 -12 5.25 -12.25 6.28125 -12.25 C 7.132812 -12.25 7.90625 -12.082031 8.59375 -11.75 C 9.289062 -11.425781 9.867188 -10.96875 10.328125 -10.375 C 10.785156 -9.78125 11.085938 -9.09375 11.234375 -8.3125 Z M 9.734375 -8.3125 "/></g></g><g style="fill:#000000;fill-opacity:1;"><g transform="translate(128.799408, 15.916166)"><path style="stroke:none" d=""/></g></g><g style="fill:#000000;fill-opacity:1;"><g transform="translate(136.800231, 15.916166)"><path style="stroke:none" d="M 4.703125 0.171875 C 3.898438 0.171875 3.210938 0.0234375 2.640625 -0.265625 C 2.066406 -0.554688 1.625 -0.957031 1.3125 -1.46875 C 1 -1.976562 0.84375 -2.5625 0.84375 -3.21875 C 0.84375 -3.945312 1.0625 -4.5625 1.5 -5.0625 C 1.945312 -5.570312 2.523438 -6.070312 3.234375 -6.5625 C 2.816406 -7.0625 2.472656 -7.535156 2.203125 -7.984375 C 1.941406 -8.441406 1.8125 -8.9375 1.8125 -9.46875 C 1.8125 -10.28125 2.078125 -10.9375 2.609375 -11.4375 C 3.148438 -11.945312 3.863281 -12.203125 4.75 -12.203125 C 5.351562 -12.203125 5.875 -12.082031 6.3125 -11.84375 C 6.75 -11.613281 7.082031 -11.304688 7.3125 -10.921875 C 7.550781 -10.546875 7.671875 -10.132812 7.671875 -9.6875 C 7.671875 -9.101562 7.523438 -8.597656 7.234375 -8.171875 C 6.953125 -7.742188 6.5625 -7.347656 6.0625 -6.984375 L 5.1875 -6.328125 L 7.8125 -3.125 C 7.96875 -3.425781 8.085938 -3.757812 8.171875 -4.125 C 8.265625 -4.488281 8.3125 -4.878906 8.3125 -5.296875 L 9.65625 -5.296875 C 9.65625 -4.453125 9.550781 -3.769531 9.34375 -3.25 C 9.132812 -2.726562 8.921875 -2.320312 8.703125 -2.03125 L 10.359375 0 L 8.6875 0 L 7.828125 -1.03125 C 7.441406 -0.625 6.960938 -0.320312 6.390625 -0.125 C 5.816406 0.0703125 5.253906 0.171875 4.703125 0.171875 Z M 7 -2.03125 L 4.109375 -5.53125 L 3.65625 -5.1875 C 3.113281 -4.789062 2.742188 -4.398438 2.546875 -4.015625 C 2.359375 -3.640625 2.265625 -3.375 2.265625 -3.21875 C 2.265625 -2.832031 2.363281 -2.476562 2.5625 -2.15625 C 2.757812 -1.832031 3.035156 -1.566406 3.390625 -1.359375 C 3.753906 -1.160156 4.175781 -1.0625 4.65625 -1.0625 C 5.53125 -1.0625 6.3125 -1.382812 7 -2.03125 Z M 4.328125 -7.375 L 5.125 -7.953125 C 5.46875 -8.179688 5.742188 -8.421875 5.953125 -8.671875 C 6.160156 -8.929688 6.265625 -9.269531 6.265625 -9.6875 C 6.265625 -9.988281 6.128906 -10.28125 5.859375 -10.5625 C 5.585938 -10.851562 5.234375 -11 4.796875 -11 C 4.484375 -11 4.207031 -10.921875 3.96875 -10.765625 C 3.738281 -10.609375 3.554688 -10.410156 3.421875 -10.171875 C 3.296875 -9.941406 3.234375 -9.703125 3.234375 -9.453125 C 3.234375 -9.109375 3.34375 -8.765625 3.5625 -8.421875 C 3.78125 -8.078125 4.035156 -7.726562 4.328125 -7.375 Z M 4.328125 -7.375 "/></g></g><g style="fill:#000000;fill-opacity:1;"><g transform="translate(150.75064, 15.916166)"><path style="stroke:none" d=""/></g></g><g style="fill:#000000;fill-opacity:1;"><g transform="translate(158.751464, 15.916166)"><path style="stroke:none" d="M 1.953125 0 L 0.421875 0 L 4.859375 -12.09375 L 6.375 -12.09375 L 10.8125 0 L 9.28125 0 L 8.0625 -3.421875 L 3.171875 -3.421875 Z M 3.640625 -4.71875 L 7.609375 -4.71875 L 5.671875 -10.171875 L 5.578125 -10.171875 Z M 3.640625 -4.71875 "/></g></g><g style="fill:#000000;fill-opacity:1;"><g transform="translate(173.315712, 15.916166)"><path style="stroke:none" d="M 2.921875 -12.09375 L 2.921875 0 L 1.46875 0 L 1.46875 -12.09375 Z M 2.921875 -12.09375 "/></g></g></g><mask id="e29c87683a"><g filter="url(#0efbd05f54)"><rect x="0" width="272.25" y="0" height="68.999997" style="fill:#000000;fill-opacity:0.8;stroke:none;"/></g></mask></g><path style="fill:none;stroke-width:3;stroke-linecap:round;stroke-linejoin:miter;stroke:#ff3131;stroke-opacity:1;stroke-miterlimit:4;" d="M 1.49897 1.500721 L 73.829599 1.500721 " transform="matrix(0,0.744682,-0.744682,0,65.691778,8.74312)"/></g></svg>